<?xml version="1.0" encoding="UTF-8"?>
<svg version="1.1" xmlns="http://www.w3.org/2000/svg" width="2000" height="1009">
<path d="M0 0 C325.71 0 651.42 0 987 0 C987 64.02 987 128.04 987 194 C981.39 194.33 975.78 194.66 970 195 C970 136.26 970 77.52 970 17 C655.51 17 341.02 17 17 17 C17 331.49 17 645.98 17 970 C331.49 970 645.98 970 970 970 C970 911.59 970 853.18 970 793 C975.61 793 981.22 793 987 793 C987 857.02 987 921.04 987 987 C661.29 987 335.58 987 0 987 C0 661.29 0 335.58 0 0 Z " fill="#C569CD" transform="translate(18,11)"/>
<path d="M0 0 C0.55381348 0.41088867 1.10762695 0.82177734 1.67822266 1.24511719 C25.99971674 19.69590581 40.13195246 49.18920318 44.25310248 79.03880405 C46.04662156 93.17783061 46.40854083 107.07756627 46.34057617 121.31640625 C46.33972738 123.85193369 46.34020995 126.38746187 46.34190369 128.92298889 C46.3425801 134.32634071 46.33424248 139.7295509 46.31719017 145.13287354 C46.29255347 152.94463155 46.28497006 160.75633737 46.2812262 168.56813002 C46.27469981 181.24971449 46.25484363 193.93124027 46.22631836 206.61279297 C46.19867804 218.9138968 46.17749365 231.21498456 46.16479492 243.51611328 C46.16400675 244.27746578 46.16321858 245.03881828 46.16240653 245.82324207 C46.15849072 249.64365305 46.15469976 253.46406415 46.15097082 257.28447533 C46.11999397 288.85636894 46.06475629 320.42815311 46 352 C30.16 352 14.32 352 -2 352 C-2.02187378 340.52460449 -2.02187378 340.52460449 -2.04418945 328.81738281 C-2.09306187 304.2724313 -2.15650247 279.72753786 -2.22898628 255.1826454 C-2.24025295 251.36297486 -2.25139164 247.54330396 -2.26245117 243.72363281 C-2.2657567 242.58310605 -2.2657567 242.58310605 -2.269129 241.41953835 C-2.30439442 229.14665994 -2.32931904 216.87378159 -2.35034702 204.60087147 C-2.37219516 191.98527626 -2.40533006 179.36974615 -2.44870156 166.75420642 C-2.475064 158.98475694 -2.4928724 151.2153884 -2.49934604 143.44589648 C-2.50527891 137.46416775 -2.52699928 131.48259675 -2.55427551 125.50092316 C-2.56299494 123.06470007 -2.56679114 120.628453 -2.56500816 118.19221497 C-2.55153945 91.27200531 -4.07575617 62.87582712 -23.66015625 42.28125 C-36.70017385 29.56777708 -54.80291762 22.68132602 -73 22 C-74.22847656 21.9484375 -75.45695312 21.896875 -76.72265625 21.84375 C-100.47850144 21.17300977 -121.54622117 27.38046901 -139.25 43.6875 C-157.55100541 63.22401632 -162.86663733 89.37909705 -162.13183594 115.33300781 C-161.0619244 136.97692193 -152.1862871 159.19715624 -136 174 C-121.77146086 185.23110956 -105.28675176 192.2634058 -87 193 C-86.33613281 193.03996094 -85.67226562 193.07992187 -84.98828125 193.12109375 C-63.61564606 193.81316003 -44.34779894 187.42437996 -26.15625 176.75 C-23 175 -23 175 -21 175 C-21 190.84 -21 206.68 -21 223 C-42.21839861 232.98512876 -59.41343355 238.44267548 -82.5 238.375 C-83.20109894 238.37445618 -83.90219788 238.37391235 -84.62454224 238.37335205 C-96.45263979 238.33132439 -107.6073901 237.31719219 -119 234 C-119.72106934 233.79632812 -120.44213867 233.59265625 -121.18505859 233.3828125 C-152.82370297 224.15813688 -179.06549146 201.63324971 -195.02075195 173.08886719 C-210.96342651 143.45134178 -215.35942412 108.84456414 -208 76 C-207.8443457 75.30036133 -207.68869141 74.60072266 -207.52832031 73.87988281 C-201.9049811 49.84880646 -189.15992134 29.40229311 -172 12 C-171.14921875 11.13632812 -170.2984375 10.27265625 -169.421875 9.3828125 C-125.86428788 -32.47941943 -48.19588109 -35.77633932 0 0 Z " fill="#FE5D5D" transform="translate(1536,396)"/>
<path d="M0 0 C74.25 0 148.5 0 225 0 C225 66.00468146 209.26308282 117.27352435 164.3359375 166.41796875 C163.04856344 167.84096917 161.76789137 169.27050656 160.51831055 170.72680664 C155.61820392 176.43178245 150.39077733 181.75820592 145.0625 187.0625 C143.77956055 188.35124023 143.77956055 188.35124023 142.47070312 189.66601562 C137.47664708 194.65245297 132.38361098 199.4376059 127 204 C126.09882446 204.76775757 126.09882446 204.76775757 125.17944336 205.55102539 C124.0119927 206.54397594 122.84364378 207.53587153 121.67431641 208.52661133 C116.79185582 212.66853565 112.01177188 216.80967699 107.5703125 221.4296875 C105.79397233 223.20602767 103.91585411 224.81303054 102 226.4375 C97.90899229 229.9809541 94.47883739 233.86542937 91 238 C90.1646875 238.94746094 89.329375 239.89492188 88.46875 240.87109375 C68.17163369 264.01407333 58.4124916 289.07503918 52 319 C109.42 319 166.84 319 226 319 C226 334.51 226 350.02 226 366 C151.42 366 76.84 366 0 366 C0 312.72382385 4.01003103 271.24049576 35 228 C35.46132324 227.35466309 35.92264648 226.70932617 36.39794922 226.04443359 C50.91369728 205.8954152 67.86755357 185.95804248 86.73754883 169.75537109 C90.89077675 166.1360453 94.84528181 162.34927384 98.76171875 158.4765625 C99.83049004 157.41989883 99.83049004 157.41989883 100.92085266 156.34188843 C102.42061892 154.8558625 103.91890573 153.36834208 105.41577148 151.87939453 C106.91680229 150.38981705 108.4222689 148.90469474 109.93237305 147.42431641 C138.05612032 119.85177364 160.57527964 86.22397464 171 48 C86.355 47.505 86.355 47.505 0 47 C0 31.49 0 15.98 0 0 Z " fill="#FE5D5D" transform="translate(520,263)"/>
<path d="M0 0 C15.51 0 31.02 0 47 0 C47.029729 6.19656372 47.029729 6.19656372 47.06005859 12.51831055 C47.12725831 26.23664177 47.20479723 39.95489868 47.28752708 53.67314434 C47.33738991 61.98251747 47.38383285 70.29188201 47.421875 78.60131836 C47.45508868 85.85410578 47.49507521 93.10682088 47.54279006 100.35952789 C47.56776736 104.19042776 47.5896287 108.02128149 47.60334396 111.85223961 C46.16709815 155.177826 46.16709815 155.177826 63.7421875 193.1171875 C88.95001955 214.1382516 137.18358673 205.63505275 162 206 C162 138.02 162 70.04 162 0 C177.51 0 193.02 0 209 0 C209.06629501 32.23841434 209.12162608 64.47676182 209.15319599 96.71522395 C209.15694753 100.53231739 209.16083056 104.34941068 209.16479492 108.16650391 C209.16558185 108.92633046 209.16636878 109.68615701 209.16717956 110.46900861 C209.18018808 122.72763606 209.20381644 134.98622074 209.23145839 147.24482293 C209.25964002 159.84908482 209.27620303 172.4533245 209.28226548 185.05761659 C209.28635566 192.81788732 209.29921267 200.57803714 209.3237494 208.33827059 C209.34167404 214.31649133 209.34333383 220.29461088 209.33932304 226.27286148 C209.34014025 228.70503986 209.34599735 231.13722333 209.35761642 233.56937408 C209.51295403 267.79917708 204.82658035 302.95408872 182 330 C181.41605469 330.73347656 180.83210938 331.46695312 180.23046875 332.22265625 C159.61825473 357.27590936 124.96594091 366.35253759 94.02734375 369.54370117 C87.35589722 370.12881321 80.71232482 370.12565431 74.01953125 370.09765625 C72.72552902 370.0962413 71.43152679 370.09482635 70.09831238 370.09336853 C66.69703149 370.08959305 63.29579491 370.07980669 59.89453125 370.06866455 C56.40820933 370.05834213 52.92187987 370.05379273 49.43554688 370.04882812 C42.62365909 370.03871246 35.81189216 370.01912856 29 370 C29 355.15 29 340.3 29 325 C32.60550781 324.96261719 36.21101563 324.92523437 39.92578125 324.88671875 C43.48402391 324.84028299 47.04217043 324.78913018 50.6003418 324.73754883 C53.04103573 324.7046424 55.48179951 324.67650841 57.92260742 324.65356445 C88.41737396 324.3593222 120.08258458 321.66690745 142.95703125 299.06640625 C153.30466198 287.86210892 158.33418468 274.39089362 160.64453125 259.53125 C160.84351013 258.2942334 160.84351013 258.2942334 161.04650879 257.03222656 C161.36912512 255.02224671 161.68524476 253.01122586 162 251 C161.22786667 251.00444122 160.45573334 251.00888245 159.66020203 251.01345825 C152.29333996 251.05395353 144.92653375 251.0841931 137.55958843 251.10362434 C133.77445824 251.11395071 129.9894219 251.1278989 126.2043457 251.15087891 C86.90034693 251.38295492 86.90034693 251.38295492 68.25 247.1875 C67.47398438 247.01718262 66.69796875 246.84686523 65.8984375 246.67138672 C45.70053467 242.07305269 27.5600986 234.10892293 16 216 C-1.90245717 183.72266343 -0.34374714 143.75306585 -0.20278788 107.99143195 C-0.18998692 104.17323581 -0.18908759 100.35503375 -0.18673706 96.53681946 C-0.18060611 89.35893835 -0.16431342 82.1811207 -0.14403808 75.00326711 C-0.12141217 66.80928915 -0.11061971 58.6153076 -0.10064721 50.42130601 C-0.07993601 33.61416137 -0.04336973 16.80710378 0 0 Z " fill="#FE5D5D" transform="translate(1769,378)"/>
<path d="M0 0 C15.51 0 31.02 0 47 0 C47.01458252 4.41415283 47.02916504 8.82830566 47.04418945 13.3762207 C47.09469299 28.01659352 47.16116873 42.65686236 47.23571491 57.29713154 C47.28049458 66.16706967 47.31994924 75.03696924 47.34643555 83.90698242 C47.36956122 91.64686518 47.40311857 99.38662407 47.44870156 107.12640828 C47.47243949 111.21660236 47.49129438 115.30667526 47.49761391 119.39693642 C46.43126371 158.80329562 46.43126371 158.80329562 63 193 C88.46241023 214.13706491 137.09815675 205.63910372 162 206 C162 138.02 162 70.04 162 0 C177.51 0 193.02 0 209 0 C209.04420225 31.09186417 209.08108748 62.18369767 209.10213066 93.27558351 C209.10463167 96.95748542 209.10722035 100.63938726 209.10986328 104.32128906 C209.1103879 105.05420008 209.11091252 105.7871111 209.11145304 106.54223154 C209.12012379 118.36435624 209.13587513 130.18646121 209.15430559 142.00857426 C209.17309783 154.16535267 209.18413629 166.32212085 209.18817699 178.47891319 C209.19066004 185.29614263 209.19656378 192.11333118 209.21146011 198.93054581 C209.2251641 205.36387173 209.22919707 211.79713533 209.22621536 218.23047447 C209.22675985 220.57557071 209.23066016 222.9206693 209.23841095 225.26575279 C209.36735558 266.3383671 204.38634889 306.05892213 175.25 337.1875 C154.1385259 357.16575382 126.26106101 365.54862796 98 369 C97.29756668 369.08855255 96.59513336 369.1771051 95.87141418 369.26834106 C88.61288196 370.09502925 81.41620227 370.12806313 74.1171875 370.09765625 C72.82177032 370.0962413 71.52635315 370.09482635 70.19168091 370.09336853 C66.78216549 370.08958811 63.37269408 370.0797972 59.9631958 370.06866455 C56.47026169 370.05835308 52.97732012 370.05379507 49.484375 370.04882812 C42.6562114 370.03870333 35.82816794 370.01912057 29 370 C29 355.15 29 340.3 29 325 C32.53332031 324.96261719 36.06664062 324.92523437 39.70703125 324.88671875 C43.1957762 324.84027702 46.68442333 324.78912645 50.1730957 324.73754883 C52.56528591 324.7046516 54.9575472 324.67651501 57.34985352 324.65356445 C87.16111067 324.36001132 119.12631095 322.01170655 141.40625 299.80078125 C145.10668315 295.8049822 148.20819164 291.67136385 151 287 C151.57814453 286.03707031 151.57814453 286.03707031 152.16796875 285.0546875 C157.12772974 275.97129382 159.28955519 265.75269026 160.60546875 255.58203125 C161 253 161 253 162 251 C161.22866226 251.00666183 160.45732452 251.01332367 159.66261292 251.02018738 C152.26819902 251.08117594 144.87391289 251.12640831 137.47931004 251.15543652 C133.68083735 251.17086343 129.88257827 251.19166017 126.08422852 251.22631836 C51.48950531 251.88849576 51.48950531 251.88849576 24.609375 227.86328125 C2.11862635 204.72228986 -0.19502502 167.15897398 -0.11352539 136.68457031 C-0.11324264 135.18528241 -0.11340297 133.68599437 -0.1139679 132.18670654 C-0.11425243 128.15447549 -0.10841174 124.12227476 -0.10139394 120.0900507 C-0.09510272 115.86201701 -0.09455207 111.63398247 -0.09336853 107.40594482 C-0.09027212 99.4164956 -0.0820817 91.42706022 -0.07201904 83.43761706 C-0.06080518 74.33473275 -0.05533422 65.23184774 -0.05032361 56.12895823 C-0.03989751 37.41929607 -0.02157325 18.70965285 0 0 Z " fill="#FE5D5D" transform="translate(792,378)"/>
<path d="M0 0 C160.56681708 0 160.56681708 0 188.43017578 27.40673828 C212.38791155 52.30961897 209.30778787 90.81486207 209.20278788 122.84092689 C209.19014339 127.35852939 209.18909935 131.87613558 209.18673706 136.39375305 C209.18056207 144.91776869 209.16420614 153.441732 209.14403808 161.96572477 C209.12155388 171.68302269 209.11065441 181.40032333 209.10064721 191.11764085 C209.07983559 211.07846278 209.0432102 231.03921313 209 251 C193.49 251 177.98 251 162 251 C161.9906543 246.30273682 161.98130859 241.60547363 161.97167969 236.76586914 C161.93783257 221.2034608 161.88243908 205.64118337 161.81609726 190.07888126 C161.7764162 180.6483694 161.74396848 171.21793967 161.72900391 161.78735352 C161.71593038 153.56037818 161.68882176 145.33358437 161.64538693 137.10671133 C161.62289933 132.75720996 161.6070816 128.40793142 161.60811615 124.05836678 C161.60887037 119.95012497 161.59061971 115.84237336 161.55883217 111.73425865 C161.55043169 110.24013131 161.54851468 108.74594832 161.55419731 107.25180817 C161.61003806 90.28744726 158.27939044 75.02307695 148.8125 60.6875 C122.93643809 35.96148529 77.08630157 44.47756034 47 44 C47 112.31 47 180.62 47 251 C31.49 251 15.98 251 0 251 C0 168.17 0 85.34 0 0 Z " fill="#FE5D5D" transform="translate(1062,378)"/>
<path d="M0 0 C15.84 0 31.68 0 48 0 C48.00808685 3.41413239 48.01617371 6.82826477 48.02450562 10.34585571 C48.09966439 41.69233883 48.18457585 73.03878188 48.28005161 104.38520972 C48.29256969 108.49801719 48.30500259 112.61082492 48.31738281 116.72363281 C48.31984881 117.54237953 48.3223148 118.36112624 48.32485552 119.20468347 C48.36452197 132.44189398 48.39729629 145.67911296 48.42749982 158.91634806 C48.45867201 172.51049019 48.49730584 186.10459654 48.54279006 199.6986984 C48.57059755 208.07926831 48.59266391 216.4598122 48.60726251 224.8404157 C48.61784773 230.59619781 48.63571525 236.35192937 48.65916704 242.1076733 C48.67246381 245.42277613 48.68160231 248.73774698 48.68421364 252.05288506 C47.82153186 281.24704314 47.82153186 281.24704314 59.1875 307.2578125 C72.28959218 319.85163386 91.01110231 320.10584749 108 321 C108 335.85 108 350.7 108 366 C84.7376261 366 84.7376261 366 76.6875 364.75 C75.77436035 364.61577637 74.8612207 364.48155273 73.92041016 364.34326172 C57.21892052 361.76092058 41.87493056 356.85850329 28 347 C27.29101562 346.50113281 26.58203125 346.00226563 25.8515625 345.48828125 C9.30789402 332.50836744 3.72509943 309.78898687 1 290 C0.14771455 281.99135648 -0.14265391 274.05221275 -0.12025452 266.00299072 C-0.12110894 264.85751007 -0.12196337 263.71202941 -0.12284368 262.53183722 C-0.12447926 258.72726314 -0.11900883 254.92273402 -0.11352539 251.11816406 C-0.11268468 248.37751233 -0.11335818 245.63686146 -0.1139679 242.89620972 C-0.11449014 237.01305941 -0.11137478 231.12992027 -0.10573006 225.24677277 C-0.09757427 216.74091713 -0.09499567 208.23506685 -0.09374207 199.72920772 C-0.09155794 185.9262396 -0.08491522 172.12327741 -0.07543945 158.3203125 C-0.06624878 144.91862009 -0.05917605 131.5169293 -0.05493164 118.11523438 C-0.05466892 117.28800229 -0.05440619 116.4607702 -0.05413551 115.60847047 C-0.05283039 111.45814628 -0.0515667 107.30782209 -0.05032361 103.15749788 C-0.0399709 68.77166081 -0.0220932 34.38583145 0 0 Z " fill="#FE5D5D" transform="translate(1636,263)"/>
</svg>
